<svg height="512pt" viewBox="-86 0 512 512" width="512pt" xmlns="http://www.w3.org/2000/svg"><path d="m325.296875 512h-310.207031c-4.570313 0-8.894532-2.070312-11.757813-5.632812-2.867187-3.5625-3.960937-8.230469-2.980469-12.695313l77.585938-307.371094c1.523438-6.917969 7.652344-11.847656 14.738281-11.847656h154.261719c6.898438 0 12.917969 4.675781 14.621094 11.359375l78.355468 307.371094c1.152344 4.515625.152344 9.308594-2.707031 12.984375-2.855469 3.679687-7.253906 5.832031-11.910156 5.832031zm0 0" fill="#ff8870"/><path d="m261.558594 185.8125c-1.703125-6.683594-7.722656-11.359375-14.621094-11.359375h-76.75v337.546875h155.105469c4.660156 0 9.058593-2.152344 11.914062-5.832031 2.859375-3.675781 3.859375-8.46875 2.707031-12.984375zm0 0" fill="#ff468c"/><path d="m242.039062 512h-143.488281l26.453125-337.546875h86.339844zm0 0" fill="#ff468c"/><path d="m170.1875 512h71.851562l-30.695312-337.546875h-41.15625zm0 0" fill="#d72878"/><path d="m252.351562 204.628906h-164.320312c-7.226562 0-13.441406-5.125-14.816406-12.222656l-33.761719-174.449219c-.855469-4.421875.308594-8.996093 3.175781-12.46875 2.863282-3.476562 7.132813-5.488281 11.636719-5.488281h52.898437c6.355469 0 12.03125 3.984375 14.191407 9.960938l26.511719 73.378906c4.171874 11.554687 14.269531 15.671875 22.324218 15.671875 8.054688 0 18.152344-4.117188 22.324219-15.671875l26.511719-73.378906c2.160156-5.976563 7.835937-9.960938 14.191406-9.960938h52.898438c4.503906 0 8.773437 2.011719 11.640624 5.484375 2.863282 3.476563 4.027344 8.050781 3.171876 12.472656l-33.765626 174.449219c-1.371093 7.097656-7.585937 12.222656-14.8125 12.222656zm0 0" fill="#ff8870"/><path d="m286.117188 0h-52.898438c-6.355469 0-12.03125 3.984375-14.191406 9.960938l-26.507813 73.378906c-4.175781 11.554687-14.273437 15.671875-22.328125 15.671875v105.617187h82.164063c7.226562 0 13.4375-5.128906 14.8125-12.222656l33.765625-174.449219c.855468-4.421875-.308594-8.996093-3.175782-12.472656-2.867187-3.472656-7.136718-5.484375-11.640624-5.484375zm0 0" fill="#ff468c"/><path d="m262.410156 204.628906h-184.4375c-8.332031 0-15.089844-6.757812-15.089844-15.089844 0-8.332031 6.757813-15.085937 15.089844-15.085937h184.441406c8.332032 0 15.085938 6.753906 15.085938 15.085937 0 8.332032-6.753906 15.089844-15.089844 15.089844zm0 0" fill="#ffe733"/><path d="m262.410156 174.453125h-92.222656v30.175781h92.222656c8.332032 0 15.089844-6.757812 15.089844-15.089844 0-8.332031-6.753906-15.085937-15.089844-15.085937zm0 0" fill="#ffc247"/></svg>