<svg height="511pt" viewBox="-17 0 511 511.99982" width="511pt" xmlns="http://www.w3.org/2000/svg" xmlns:xlink="http://www.w3.org/1999/xlink"><linearGradient id="a"><stop offset="0" stop-color="#ff706a"/><stop offset=".8111" stop-color="#f64640"/><stop offset="1" stop-color="#f43b36"/></linearGradient><linearGradient id="b" gradientTransform="matrix(0 1.003922 1.003922 0 -226.514063 409.032589)" gradientUnits="userSpaceOnUse" x1="-307.7444" x2="-272.8978" xlink:href="#a" y1="279.3327" y2="279.3327"/><linearGradient id="c"><stop offset="0" stop-color="#45425a"/><stop offset="1" stop-color="#2d3251"/></linearGradient><linearGradient id="d" gradientTransform="matrix(.709873 .709873 -.709873 .709873 1055.558934 -235.382658)" gradientUnits="userSpaceOnUse" x1="-232.2646" x2="-203.6278" xlink:href="#c" y1="872.0618" y2="872.0618"/><linearGradient id="e" gradientTransform="matrix(-.709873 .709873 -.709873 -.709873 2314.316356 1639.957288)" gradientUnits="userSpaceOnUse" x1="384.2412" x2="412.878" xlink:href="#c" y1="2431.4285" y2="2431.4285"/><radialGradient id="f" cx="198.975297" cy="147.576338" gradientUnits="userSpaceOnUse" r="273.3269001902"><stop offset="0" stop-color="#ffd459"/><stop offset=".4604" stop-color="#ffd357"/><stop offset=".6262" stop-color="#ffd150"/><stop offset=".7444" stop-color="#ffcd45"/><stop offset=".84" stop-color="#ffc734"/><stop offset=".9209" stop-color="#ffbf1e"/><stop offset=".9922" stop-color="#ffb503"/><stop offset="1" stop-color="#ffb400"/></radialGradient><linearGradient id="g"><stop offset="0" stop-color="#ffd459"/><stop offset=".1917" stop-color="#ffd254"/><stop offset=".4166" stop-color="#ffcd46"/><stop offset=".6583" stop-color="#ffc52e"/><stop offset=".9103" stop-color="#ffb90e"/><stop offset="1" stop-color="#ffb400"/></linearGradient><linearGradient id="h" gradientUnits="userSpaceOnUse" x1="329.3268385006" x2="229.8141745648" xlink:href="#g" y1="380.6273934332" y2="281.1146291052"/><linearGradient id="i" gradientTransform="matrix(-1.003922 0 0 1.003922 553.502476 -.000196)" gradientUnits="userSpaceOnUse" x1="305.724" x2="230.5657" xlink:href="#g" y1="370.5075" y2="295.3492"/><linearGradient id="j" gradientUnits="userSpaceOnUse" x1="263.503387472" x2="138.8179817394" y1="470.4328343744" y2="345.7474286418"><stop offset="0" stop-color="#f43b36" stop-opacity="0"/><stop offset=".436" stop-color="#d02021" stop-opacity=".435294"/><stop offset="1" stop-color="#a60108"/></linearGradient><linearGradient id="k" gradientTransform="matrix(1.003922 .00291137 -.00291137 1.003922 -25.171569 .984049)" gradientUnits="userSpaceOnUse" x1="110.251" x2="230.1182" xlink:href="#c" y1="361.6186" y2="481.4857"/><linearGradient id="l" gradientTransform="matrix(-1.003922 -.00291137 .00291137 -1.003922 -777.298364 -5621.777664)" gradientUnits="userSpaceOnUse" x1="-974.7361" x2="-894.0444" xlink:href="#c" y1="-6059.2568" y2="-5978.5654"/><linearGradient id="m"><stop offset="0" stop-color="#2d3251" stop-opacity="0"/><stop offset=".0488" stop-color="#2d3251" stop-opacity=".047059"/><stop offset="1" stop-color="#2d3251"/></linearGradient><linearGradient id="n" gradientTransform="matrix(1.003922 .00291137 -.00291137 1.003922 -25.171569 .984049)" gradientUnits="userSpaceOnUse" x1="238.3714" x2="139.0091" xlink:href="#m" y1="489.7389" y2="390.3766"/><linearGradient id="o" gradientTransform="matrix(1.003922 .00291137 -.00291137 1.003922 -25.171569 .984049)" gradientUnits="userSpaceOnUse" x1="160.2224" x2="189.9087" xlink:href="#a" y1="411.5899" y2="441.2762"/><linearGradient id="p" gradientTransform="matrix(1.003922 .00291137 -.00291137 1.003922 -25.171569 .984049)" gradientUnits="userSpaceOnUse" x1="355.2766" x2="475.1438" xlink:href="#c" y1="360.908" y2="480.7751"/><linearGradient id="q" gradientTransform="matrix(-1.003922 -.00291137 .00291137 -1.003922 -777.298364 -5621.777664)" gradientUnits="userSpaceOnUse" x1="-1219.7616" x2="-1139.0701" xlink:href="#c" y1="-6058.5464" y2="-5977.8545"/><linearGradient id="r" gradientTransform="matrix(1.003922 .00291137 -.00291137 1.003922 -25.171569 .984049)" gradientUnits="userSpaceOnUse" x1="483.397" x2="384.0347" xlink:href="#m" y1="489.0284" y2="389.666"/><linearGradient id="s" gradientTransform="matrix(1.003922 .00291137 -.00291137 1.003922 -25.171569 .984049)" gradientUnits="userSpaceOnUse" x1="405.248" x2="434.9343" xlink:href="#a" y1="410.8794" y2="440.5657"/><linearGradient id="t" gradientUnits="userSpaceOnUse" x1="118.8861143514" x2="146.2120680538" xlink:href="#c" y1="75.78085617" y2="103.1067094802"/><path d="m75.753906 128.636719h24.652344c1.910156 0 3.640625-.78125 4.898438-2.027344 1.246093-1.253906 2.023437-2.984375 2.023437-4.898437v-21.4375c0-1.832032-.714844-3.492188-1.871094-4.734376-.039062-.039062-.078125-.082031-.105469-.109374-.941406-.957032-2.160156-1.648438-3.527343-1.929688-.015625-.007812-.023438-.007812-.035157-.007812-.449218-.09375-.90625-.140626-1.382812-.140626h-24.652344c-14.769531 0-29.519531.960938-44.164062 2.871094l-20.464844 2.671875c-6.078125.789063-10.625 5.96875-10.625 12.097657 0 .296874.011719.589843.03125.878906.007812.128906.023438.253906.035156.382812.011719.140625.027344.28125.054688.421875-.007813.007813 0 .019531 0 .027344.027344.179687.054687.355469.085937.539063.066407.363281.15625.722656.253907 1.078124.050781.175782.101562.347657.164062.523438.039062.121094.078125.25.125.371094.039062.121094.089844.242187.140625.355468.179687.453126.390625.890626.625 1.3125.097656.183594.207031.371094.320313.542969.472656.773438 1.027343 1.476563 1.65625 2.113281.128906.128907.257812.257813.390624.382813.109376.101563.214844.203125.328126.289063 1.757812 1.53125 3.957031 2.5625 6.414062 2.882812l20.464844 2.671875c14.644531 1.910156 29.394531 2.871094 44.164062 2.871094zm0 0" fill="url(#b)"/><path d="m242.90625 259.355469c-7.289062-7.289063-7.289062-19.105469 0-26.394531l42.890625-42.890626c7.289063-7.289062 19.105469-7.289062 26.394531 0 7.289063 7.289063 7.289063 19.105469 0 26.394532l-42.890625 42.890625c-7.289062 7.289062-19.105469 7.289062-26.394531 0zm0 0" fill="url(#d)"/><path d="m274.984375 157.992188c7.289063-7.285157 19.105469-7.285157 26.394531 0l42.890625 42.890624c7.289063 7.289063 7.289063 19.105469 0 26.394532-7.289062 7.289062-19.105469 7.289062-26.394531 0l-42.890625-42.890625c-7.289063-7.289063-7.289063-19.105469 0-26.394531zm0 0" fill="url(#e)"/><path d="m475.246094 220.113281c-1.34375-8.410156-11.21875-12.15625-17.871094-6.859375-34.25 27.371094-77.683594 43.742188-124.945312 43.742188-15.882813 0-31.339844-1.839844-46.160157-5.335938-6.589843-1.558594-12.839843-3.765625-18.703125-6.539062-25.722656-12.175782-33.449218-45.261719-15.625-67.445313 15.226563-18.957031 24.265625-43.09375 24.039063-69.355469-.511719-59.089843-48.636719-107.488281-107.726563-108.3085932-61.070312-.8515628-110.84375 48.3984372-110.84375 109.2734372 0 23.582032 9.578125 50.738282 25.792969 70.679688 10.617187 13.054687 9.347656 33.121094-2.386719 45.179687-30.808594 31.664063-4.34375 95.867188 9.636719 121.878907 33.78125 62.824218 110.503906 105.246093 186.960937 105.246093 6.160157 0 12.238282-.28125 18.253907-.820312 102.089843-9.222657 182.097656-95.035157 182.097656-199.53125 0-10.824219-.867187-21.449219-2.519531-31.804688zm0 0" fill="url(#f)"/><path d="m366.257812 320.179688c0 46.390624-37.605468 83.996093-83.996093 83.996093-46.386719 0-83.996094-37.605469-83.996094-83.996093 0-46.390626 167.992187-46.390626 167.992187 0zm0 0" fill="url(#h)"/><path d="m218.574219 326.125c0 35.175781 28.515625 63.6875 63.6875 63.6875 35.175781 0 63.691406-28.511719 63.691406-63.6875 0-35.171875-127.378906-35.171875-127.378906 0zm0 0" fill="url(#i)"/><path d="m295.667969 451.445312c-6.019531.546876-12.097657.820313-18.253907.820313-76.460937 0-142.769531-42.417969-176.546874-105.246094 12.757812-7.121093 27.460937-11.164062 43.109374-11.117187 24.960938.066406 47.449219 10.539062 63.417969 27.269531.992188.945313 1.945313 1.898437 2.890625 2.890625zm0 0" fill="url(#j)"/><path d="m231.773438 423.949219c0 48.628906-39.421876 88.050781-88.050782 88.050781s-88.046875-39.421875-88.046875-88.050781c0-48.625 39.417969-88.046875 88.046875-88.046875s88.050782 39.421875 88.050782 88.046875zm0 0" fill="url(#k)"/><path d="m202.996094 423.949219c0 32.738281-26.539063 59.273437-59.273438 59.273437s-59.273437-26.535156-59.273437-59.273437c0-32.734375 26.539062-59.269531 59.273437-59.269531s59.273438 26.535156 59.273438 59.269531zm0 0" fill="url(#l)"/><path d="m226.066406 455.183594-55.792968-56.113282c-6.613282-7.058593-16.007813-11.484374-26.445313-11.515624-20.101563-.058594-36.441406 16.191406-36.5 36.292968-.03125 10.4375 4.34375 19.851563 11.363281 26.511719l55.792969 56.113281c23.714844-8.847656 42.601563-27.621094 51.582031-51.289062zm0 0" fill="url(#n)"/><path d="m180.121094 423.949219c0 20.101562-16.296875 36.398437-36.398438 36.398437-20.097656 0-36.394531-16.296875-36.394531-36.398437 0-20.097657 16.296875-36.394531 36.394531-36.394531 20.101563 0 36.398438 16.296874 36.398438 36.394531zm0 0" fill="url(#o)"/><path d="m477.761719 423.949219c0 48.628906-39.421875 88.050781-88.050781 88.050781-48.625 0-88.046876-39.421875-88.046876-88.050781 0-48.625 39.421876-88.046875 88.046876-88.046875 48.628906 0 88.050781 39.421875 88.050781 88.046875zm0 0" fill="url(#p)"/><path d="m448.984375 423.949219c0 32.738281-26.535156 59.273437-59.273437 59.273437-32.734376 0-59.269532-26.535156-59.269532-59.273437 0-32.734375 26.535156-59.269531 59.269532-59.269531 32.738281 0 59.273437 26.535156 59.273437 59.269531zm0 0" fill="url(#q)"/><path d="m472.054688 455.183594-55.792969-56.113282c-6.617188-7.058593-16.007813-11.484374-26.445313-11.515624-20.101562-.058594-36.441406 16.191406-36.5 36.292968-.03125 10.4375 4.34375 19.851563 11.363282 26.511719l55.792968 56.113281c23.714844-8.847656 42.601563-27.621094 51.582032-51.289062zm0 0" fill="url(#r)"/><path d="m426.109375 423.949219c0 20.101562-16.296875 36.398437-36.398437 36.398437-20.101563 0-36.394532-16.296875-36.394532-36.398437 0-20.097657 16.292969-36.394531 36.394532-36.394531 20.101562 0 36.398437 16.296874 36.398437 36.394531zm0 0" fill="url(#s)"/><path d="m146.519531 83.777344v15.160156c0 6.65625-5.398437 12.058594-12.058593 12.058594-6.65625 0-12.054688-5.398438-12.054688-12.058594v-15.160156c0-6.660156 5.398438-12.054688 12.054688-12.054688 6.660156-.003906 12.058593 5.394532 12.058593 12.054688zm0 0" fill="url(#t)"/></svg>